<svg xmlns="http://www.w3.org/2000/svg" width="32" height="32" viewBox="0 0 32 32" fill="none">
  <rect width="32" height="32" rx="8" fill="url(#grad)"/>
  <path d="M16 6C10.477 6 6 10.477 6 16s4.477 10 10 10 10-4.477 10-10S21.523 6 16 6zm0 2c4.418 0 8 3.582 8 8s-3.582 8-8 8-8-3.582-8-8 3.582-8 8-8z" fill="white" opacity="0.3"/>
  <path d="M20.5 14.5h-3v-3a1.5 1.5 0 00-3 0v3h-3a1.5 1.5 0 000 3h3v3a1.5 1.5 0 003 0v-3h3a1.5 1.5 0 000-3z" fill="white"/>
  <defs>
    <linearGradient id="grad" x1="0" y1="0" x2="32" y2="32">
      <stop offset="0%" stop-color="#3b82f6"/>
      <stop offset="100%" stop-color="#10b981"/>
    </linearGradient>
  </defs>
</svg>